<?xml version="1.0" encoding="utf-8"?>
<!-- Generator: Adobe Illustrator 19.0.0, SVG Export Plug-In . SVG Version: 6.00 Build 0)  -->
<svg version="1.1" id="Layer_1" xmlns="http://www.w3.org/2000/svg" xmlns:xlink="http://www.w3.org/1999/xlink" x="0px" y="0px"
	 viewBox="-312.2 356 283.5 129.6" style="enable-background:new -312.2 356 283.5 129.6;" xml:space="preserve">
<g>
	<path d="M-47.3,435.5c0-0.4-0.3-0.5-0.7-0.5h-0.6v1h0.5C-47.7,436-47.3,436-47.3,435.5z M-83.3,391.1l-4-13.2l-0.1,0l0.9,13.7
		L-83.3,391.1z M-63.2,419.8l-0.4,15.8l3.7-0.3L-63.2,419.8L-63.2,419.8z M-78.1,412.6c-0.1-1.5-1.1-2.1-2.7-1.9l-0.9,0.1l1.6,16.8
		l0.9-0.1c1.6-0.2,2.4-0.9,2.2-2.4L-78.1,412.6z M-48,434c-1.2,0-2.1,0.9-2.1,2.1c0,1.2,0.9,2.1,2.1,2.1c1.2,0,2.1-0.9,2.1-2.1
		C-45.9,434.9-46.8,434-48,434z M-47.2,437.6l-0.8-1.3h-0.6v1.3H-49v-2.9h1.1c0.7,0,0.9,0.3,0.9,0.8c0,0.5-0.3,0.7-0.7,0.8l0.9,1.3
		H-47.2z M-120.9,421.6c-0.3-1.1-0.7-3-2.9-2.5c-2.2,0.5-1.7,2.4-1.5,3.5l3.8,16.1c0.2,0.9,0.7,3,2.9,2.5c2.2-0.5,1.7-2.6,1.5-3.5
		L-120.9,421.6z M-29.1,402.5c0-1.6-0.3-3.9-0.8-6.1c-0.6-2.2-3.3-9.4-4.4-11.3c-1.1-1.9-3.6-5-4.7-6.6c-1.1-1.7-2.8-2.8-3.9-4.1
		c-1.1-1.4-1.7-2.5-3.9-4.1c-2.2-1.7-6.9-5-10.2-6.3c-3.3-1.4-3.9-2.2-7.4-3.3c-3.6-1.1-5.8-1.4-8.5-1.9c-2.8-0.5-5.8-0.8-7.4-1.4
		c-1.7-0.6-4.7-0.5-6.6-0.8c-1.9-0.3-3.3-0.3-5-0.3h-7.7c-2.2,0-3.6,0-5.8,0.3c-2.2,0.3-5.8,1.4-6.9,1.7c-1.1,0.3-3.6,0.8-5,1.1
		c-1.4,0.3-4.1,1.4-6.9,1.9c-2.8,0.5-5.8,2.7-8.3,3.3c-2.5,0.6-6.6,2.5-9.1,3.9c-2.5,1.4-3.3,1.7-5.2,2.8c-1.9,1.1-3,1.9-5.5,3.6
		c-2.5,1.6-4.4,3-5.8,4.4c-1.4,1.4-3.9,4.4-5.8,6.6c-1.9,2.2-2.2,3-3.3,5.2c-1.1,2.2-2.3,3-3,4.7c-0.6,1.4-0.8,1.9-1.4,3.3
		c-0.5,1.4-1.7,6.3-2.2,8.5c-0.5,2.2-0.8,6.9-1.4,9.9c-0.5,3-0.3,8.3,0,10.2c0.2,1.2,1,5.5,1.8,8.9c-2.8,2.1-7,5.3-7.9,5.8
		c-1.3,0.8-13.3,6.8-13.3,6.8s12.1-0.2,14.6,0c1.4,0.1,7-0.9,11.3-1.8c0.6,1,1.2,2,1.8,2.6c1.9,2.2,7.4,9.1,10.2,10.5
		c2.8,1.4,7.2,4.1,10.5,5.2c3.3,1.1,8.8,3.9,13.5,4.4c4.7,0.6,10.5,1.1,13.5,1.1c3,0,5.5-0.3,8.3-0.3c2.8,0,8,0.3,12.9-0.3
		c5-0.6,4.1-0.3,8.3-1.1c4.1-0.8,5.2-1.6,7.4-2.2c2.2-0.6,5.2-1.7,8-2.8c2.8-1.1,5.5-2.2,7.4-3.3c1.9-1.1,7.7-3.3,9.6-4.4
		c1.9-1.1,4.7-3.3,7.2-5c2.5-1.6,3.6-2.5,6.1-5c2.5-2.5,3.3-4.7,5-6.6c1.7-1.9,1.7-3.6,3-5.8c1.4-2.2,1.9-4.4,3.9-7.2
		c1.9-2.8,1.7-6.3,2.5-9.9c0.8-3.6,0.5-7.4,0.8-9.9C-28.5,404.9-29.1,404.1-29.1,402.5z M-65.7,368.6c10.7-1.5,15.3-0.3,16.8,10.6
		c0.9,6.3-0.1,13-8.9,14.2l-5.1,0.7l2.3,16.8l-9.7,1.4l-5.9-42.2L-65.7,368.6z M-84,373l10.3,26.4l-6.6,1.2l-1.5-4.7l-4.4,0.8l0.3,5
		l-6.3,1.2l-0.1-28.3L-84,373z M-97.9,377.4l1.6,6.8l-9.9,2.4l1.7,7.1l8.7-2.1l1.6,6.8l-8.7,2.1l1.9,7.8l10.3-2.5l1.6,6.8l-18.4,4.5
		l-8.5-35.2L-97.9,377.4z M-130.2,380.2l2.3,11.9l4.2-0.8l-2.3-11.9l7.2-1.4l5.9,31.4l-7.2,1.4l-2.5-13.5l-4.2,0.8l2.5,13.4
		l-7.2,1.4l-5.9-31.4L-130.2,380.2z M-163,398.8c-2.2-7.9,1.8-13.2,8.8-15.1c7-2,13.1,0.4,15.3,8.4l1,3.8l-9.3,2.6l-1.3-4.6
		c-0.4-1.4-1-3.7-3.7-3c-2.7,0.8-2,3.1-1.7,4.5l5.6,20.1c0.3,1.1,1,3.7,3.7,3c2.7-0.8,2-3.4,1.7-4.5l-1.7-6l9.3-2.6l1.4,5.1
		c2,7.2-1.3,13-8.8,15.1c-7.4,2.1-13.3-1.2-15.3-8.4L-163,398.8z M-136.8,455.7l-2.7-22.1l-0.1,0l-1.1,22.6l-4.2,0.5l-6.3-21.7
		l-0.1,0l2.7,22.1l-6.3,0.8l-3.5-28.5l10-1.2l3.8,13.9l0.1,0l0.4-14.4l10.2-1.3l3.5,28.5L-136.8,455.7z M-117.2,447
		c-5.9,1.4-10.5-1.3-11.8-7.1l-3.5-14.8c-1.5-6.3,1.8-10.3,7.4-11.7c5.6-1.3,10.3,0.8,11.8,7.1l3.5,14.8
		C-108.5,441.1-111.3,445.6-117.2,447z M-92.4,449.8l-9.4-18.7l-0.1,0l3.5,19.7l-7.1,1.2l-5.6-31.9l8-1.4l9.2,17.8l0.1,0l-3.3-18.8
		l7.1-1.2l5.6,31.9L-92.4,449.8z M-76.8,431.6l-8.7,0.8l-2.4-25.4l8.7-0.8c5-0.5,6.6,2.3,7,6.2l1.2,12.1
		C-70.6,429.1-73.7,431.3-76.8,431.6z M-57.6,446.4l-1.2-5.6l-5.1,0.5l-0.2,5.7l-7.3,0.7l2.9-32.4l9.7-0.9l8.9,31.3L-57.6,446.4z
		 M-48,438.6c-1.4,0-2.5-1.1-2.5-2.5c0-1.4,1.1-2.5,2.5-2.5c1.4,0,2.5,1.1,2.5,2.5C-45.6,437.5-46.6,438.6-48,438.6z M-45.7,418.1
		l1,13.1l-7.3,0.5l-0.9-12.6l-7.4-18.8l7.6-0.6l2.8,10.6h0.1l1.3-10.9l7.5-0.6L-45.7,418.1z M-61.5,386.3c2.5-0.4,3.4-2,2.9-5.7
		c-0.5-3.7-1.8-5.1-4.3-4.7l-2.4,0.3l1.5,10.5L-61.5,386.3z"/>
	<g>
		<path d="M-249.8,408.5c-2.3,0.2-1.9,0.9-3.3,1.5c-1.4,0.6-1.1,0.8-1.9,1.5c-0.8,0.7-0.9,1.6-2.1,2.8c-1.1,1.2-1.2,2.5-1.1,3.5
			c0.1,1.1,0.3,2,0.5,3.1c0.2,1.1,0.4,1.9,1.5,2.7c1.1,0.9,3,2.4,3.8,3c0.8,0.5,2.6,0.9,3.3,0.7c1.2-0.4,2.2-0.3,2.8-0.6
			c0.6-0.3,1.6-0.8,2.4-1.7c0.8-1,1.1-1.9,1.8-2.9c0.6-1,1.7-2.3,1.7-4c-0.1-1.6-0.2-3-0.7-3.6c-0.5-0.6-1.1-1.6-2.1-2.6
			c-0.9-1.1-3.1-3.1-3.7-3.4C-247.4,408.3-248.5,408.4-249.8,408.5z"/>
		<path d="M-285,444.4c0.6-0.3,0.8-0.4,1.5,0.2c0.7,0.6,0.3,0.9,1.4,1.3c1.1,0.4,1.9,1,2.3,1.1c0.4,0.1,0.7,0.2,1.4,0.5
			c0.7,0.2,1,0.6,1.8,0.5c0.8,0,0.7-0.4,1.9,0.3c1.2,0.7,1.3,0.6,2.4,0.8c1.1,0.2,1,0.2,2.2-0.2c1.2-0.4,1.2-0.6,1.8-1
			c0.6-0.4,0.9-0.6,1.9-1c1-0.5,1.6-1.1,2.3-1.4c0.7-0.3,0.6-0.7,1.8-1.3c1.2-0.6,1.1-0.9,1.6-1.6c0.5-0.8,0.9-0.8,1.4-1.7
			c0.5-0.9,0.2-0.8,0.7-1.5c0.5-0.6,1.5-2.2,1.8-2.9c0.2-0.7,0.7-1.7,0.8-2.3c0.1-0.6,0.7-1.6,1.1-0.9c0.4,0.7,0.1,0.9,0.2,1.7
			c0.2,0.8,0.6,0.8,0,1.7c-0.6,0.9-0.4,1.3-0.9,2c-0.5,0.8-0.8,1.3-1.2,2c-0.4,0.6-1.1,1.8-1.5,2.4c-0.4,0.6-0.8,0.8-1.1,1.1
			c-0.3,0.3-0.6,1.3-0.3,1.6c0.5,0.5,0,0.6,0.3,1.1c0.2,0.5,0.4,0.2,0.1,1.2c-0.3,1-0.9,0.8-1.1,1.5c-0.3,0.7-0.4,0.7-1.5,1.6
			c-1.1,0.9-1.9,0.4-2.9,1.1c-1,0.7-0.8,0.8-1.9,0.9c-1.2,0.1-2.3,0.2-3.5,0.2c-1.2,0-1.9-0.3-3-0.7c-1.1-0.4-2-0.9-2.7-1.1
			s-0.6-0.4-1-0.6c-0.4-0.2-0.9-0.5-1.5-0.9c-0.6-0.4-0.7,0.3-1.6,0.1c-0.8-0.2-1.4-0.2-2.2-0.9c-0.8-0.6-0.8-0.9-1.2-1.3
			c-0.4-0.4-0.7-1.4-1.1-2C-284.8,445.4-285.5,444.6-285,444.4z"/>
		<path d="M-245.2,399.4c0.4,0.4,0.7,0.7,1.3,1c0.6,0.4,0.3,0.9,1,1c0.7,0.1,0.5,0.3,1,0.6c0.6,0.3,0.3,0.3,1.3,0.6
			c1,0.3,0.9-0.2,0.8-0.8c-0.1-0.6-0.3-1-0.7-1.4s-1.2-0.9-1.6-1.5c-0.4-0.6-1.1-1.7-1.6-2.2c-0.5-0.4-1.5-1.1-2-1.4
			c-0.5-0.3-1.1-1-1.9-1.2c-0.8-0.2-1.1-0.8-1.7-0.8c-0.7,0-1.4-0.9-2.6-0.6c-1.3,0.3-2.1,0.6-2.8,0.6c-0.7,0-1.9-0.3-2.4-0.2
			c-0.5,0.1-1.6,0.1-2.1,0.4c-0.6,0.4-1.5,0.8-1.9,1.2c-0.3,0.3-0.8,0.8-1.2,1.2c-0.5,0.4-1.1,1-1.8,1.7c-0.7,0.7-0.9,0.7-1.3,1.3
			c-0.4,0.6-1.2,1.4-1.6,2c-0.4,0.6-0.8,1.1-1.3,1.4c-0.4,0.4-0.9,0.1-1.7,0.9c-0.8,0.8-1.1,1.5-1.6,2.2c-0.5,0.6-1,1.1-1.4,1.7
			c-0.4,0.6-0.4,1.1-0.7,1.6c-0.3,0.5-0.5,1.2-0.5,1.2s-0.4,1.1,0.2,0.9c0.6-0.3,1.2-0.5,1.8-1c0.5-0.5,0.7-1.1,1.6-1.8
			c0.9-0.7,1.4-1.6,2.2-2.3c0.8-0.7,1-1,1.6-1.4c0.6-0.4,0.8-0.4,1.4-0.9c0.6-0.5,0.7-0.4,1.2-1c0.5-0.6,0.9-1.5,1.4-2
			c0.5-0.5,1-1.1,1.5-1.5c0.6-0.4,0.7-0.7,1.4-1.1c0.7-0.4,0.8-0.7,1.5-0.8c0.8-0.2,0.9-0.3,1.5-0.2c0.7,0.1,1.1-0.4,1.8,0
			c0.7,0.4,0.6,0.1,1.6,0.3c1.1,0.2,1.7-0.2,2.7-0.2c1.1,0,2.1,0.2,2.6,0.4c0.4,0.2,1.3,0.5,1.6,1
			C-246.2,398.7-245.9,398.8-245.2,399.4z"/>
		<path d="M-233.2,428.4c-0.5-0.4,0-1.5-0.1-2.4c-0.1-0.9,0.2-2,0.6-2.7c0.4-0.6,0.9-1.1,1.7-1.4c0.7-0.3,1.9-0.5,2.5,0.1
			c0.6,0.6,0.9,0.9,1,1.8c0.1,0.9,0.2,1,0.3,1.9c0.1,0.9-0.1,1.2,0,1.9c0.1,0.7,0.4,0.7-0.1,1.2c-0.6,0.5-1.1,0.4-1.6,0.2
			c-0.5-0.2-1-0.6-0.7-1.4c0.2-0.8,0.3-1,0.3-1.5c0-0.5-0.5-1.7-1-1.6c-0.5,0.1-0.7,0.4-0.8,1.1c-0.1,0.7-0.2,1.7-0.4,2.3
			C-231.7,428.6-232.4,429-233.2,428.4z"/>
		<path d="M-221.2,427.4c-0.7,0.1-1.1-0.4-1.4-1.3c-0.3-0.9-0.4-2.1-0.5-2.8c-0.1-0.7,0-1.8,0.4-2.4c0.5-0.6,0.9-1.4,1.8-1.3
			c0.9,0.1,1.5,0.2,2.1,0.8c0.6,0.6,0.9,1.2,1.1,2c0.3,0.9,0.5,1.2,0.6,1.9c0.1,0.7,0.2,1.4-0.5,1.9c-0.7,0.4-1.3-0.2-1.4-1.1
			c-0.1-0.9-0.6-1.7-0.8-2.4c-0.3-0.7-0.7-1.1-1.1-0.5c-0.5,0.6-0.3,0.9-0.2,1.4c0.1,0.5,0,0.9,0.4,1.6c0.4,0.7,1.2,1.6,0.3,1.9
			C-221.2,427.4-220.5,427.3-221.2,427.4z"/>
		<path d="M-214.1,470.7c-0.6,0.1-0.5,0.5-0.5,1.2c0,0.7-0.1,1.1-0.2,2.4c-0.1,1.3,0.2,1.1,0.2,1.8c0,0.7,1.1,1.9,1.7,1.3
			c0.6-0.7,0.3-1.2,0.5-1.8c0.2-0.6,0.3-1.3,0.2-1.8c-0.1-0.5-0.4-1.2-0.5-1.7C-212.8,471.5-213.2,470.5-214.1,470.7z"/>
		<path d="M-210.2,470.2c-0.6,0.5-0.2,0.6-0.1,1.5c0.2,0.9,0.2,1.1,0.6,1.9c0.4,0.8-0.2,1.5,0.4,1.9c0.6,0.4,1,0.5,1.2-0.2
			c0.2-0.8,0.1-1.1,0-1.8c-0.1-0.7-0.2-1-0.6-1.9C-209,470.7-209.5,469.8-210.2,470.2z"/>
		<g>
			<polygon points="-233.1,392 -233.2,391.5 -233.2,391.5 -233.2,391.6 			"/>
			<path d="M-231.1,400.3l-0.1-0.6l-0.3-1l-0.2-0.8l-0.2-0.7l-0.4-1.4c-0.1-0.2,0-0.5-0.1-0.7c0-0.2-0.1-0.5-0.1-0.7
				c-0.1-0.4-0.2-0.7-0.4-1.1l-0.2-0.7l-0.2-0.8c0,0-0.1-0.2-0.1-0.3l0,0l-0.1-0.6l-0.1-0.5c-0.1-0.5-0.2-0.9-0.5-1.3
				c-0.2-0.2-0.3-0.5-0.5-0.8l-0.3-0.5l-0.6-1.1l-0.5-0.8l-0.4-0.8l-0.5-0.9l-1.5-2.2c-0.3-0.5-0.7-0.6-1-0.8l-0.5-0.3
				c-0.3-0.4-0.6-0.5-0.8-0.3c-0.2,0.1-0.3,0.4-0.2,0.7l0.1,0.3l0.4,0.7l0.4,0.6l0.6,1c0.3,0.4,0.8,1.1,0.9,1.8
				c0.1,0.4,0.4,1.2,0.8,1.8l0.2,0.4l0.3,0.5l0.2,0.5c0.1,0.5,0.6,2.4,1,3.1l0.4,1.1l0.1,0.2c-0.1-0.3-0.2-0.5-0.3-0.7l0.3,0.9
				l-0.1-0.1c0.1,0.2,0.1,0.3,0.2,0.5l0.3,0.8l0.4,0.9c0,0,0.8,2,0.8,2.1l0,0.1l0.4,1l0.3,0.7l0.3,0.6l0.3,0.7
				c0.1,0.4,0.2,0.7,0.4,0.9c0.2,0.1,0.4,0.1,0.6,0C-230.8,401.4-231,400.8-231.1,400.3z"/>
		</g>
		<path d="M-210.3,409c-0.2-0.9-0.3-2.7-1.8-3.6c-1.6-0.9-2.1-1.6-3.1-2c-1-0.3-2-0.4-3.1,0c-1.1,0.4-2.2,1.3-3,2
			c-0.8,0.7-1.4,1.2-1.8,2.6c0,0.1-0.1,0.2-0.1,0.4c-0.1-0.1-0.1-0.2-0.3-0.3c-0.3-0.4-0.7-0.6-1-1.1c-0.3-0.4-0.5-0.6-0.6-1
			c-0.1-0.5-1-1.3-1.2-0.8c-0.2,0.5-0.1,1.1,0,1.5c0.1,0.4,0.3,0.7,0.4,1.1c0.1,0.4,0.8,0.9,1.2,1.3c0.4,0.4,0.7,0.8,1,1.3
			c0.3,0.4,0.5,1,1,1.7c0.1,0.3,0.3,0.7,0.4,0.9c0.6,0.8,1.3,1.5,1.7,2.5c0.5,1,0.4,1.3,1.8,2.3c0.9,0.7,1.3,1.1,1.6,1.4h-0.1
			c0.7,1,1.3,2.3,1.6,3.1c0.3,0.7,0.4,1.1,0.9,1.8c0.5,0.7,1.1,0.8,1.2,1.6c0.2,0.8,0.2,1.5,0.7,2.6c0.5,1.1,1,1.2,1.6,2
			c0.6,0.8,1.7,0.6,1.6-0.1c-0.1-0.6-0.5-0.7-0.7-1.3c-0.1-0.6-0.8-1-0.8-1.5c0-0.5-0.5-0.9-0.4-1.2c0.2-0.5,0.2-1.1,0.2-1.6
			c0-0.5,1.7-0.5,1.4-1.1c-0.3-0.6-0.3-0.2-0.8-0.6c-0.5-0.4-1.9,0.4-2.6-0.2c-0.7-0.7-0.5-1-0.8-1.3c-0.3-0.3-0.2-0.9,0.2-1.1
			c0.1,0,0.1-0.1,0.1-0.1c0.7-0.3,1.2-0.5,2-0.7c0.9-0.2,1.8-0.8,2.1-1.9c0.3-1.2-0.2-2.2,0.4-3.2
			C-208.9,413.1-210.1,409.9-210.3,409z"/>
		<path d="M-242,427.2l-1.1,0.8l-0.4,0.3c-0.7,0.6-1.4,1.1-1.7,1.1l-0.6,0.1l-0.9,0.1l-0.6,0.2c-0.2,0.1-0.3,0.1-0.7,0.1l-0.8,0
			l-0.6,0c-0.5-0.1-0.7,0.1-0.7,0.4c-0.1,0.3,0.1,0.7,0.6,0.8l0.5,0.2c0.3,0.2,0.6,0.3,1.2,0.4l0.6,0.1c0.7,0.1,1.4,0.2,1.9-0.1
			l0.1-0.1l1.4-0.8l0.1-0.1c0.4-0.2,0.6-0.3,1-0.8l0.5-0.5c0.3-0.3,0.6-0.6,0.6-0.9l0.1-0.3c0.1-0.4,0.2-0.8,0-1
			C-241.5,427.1-241.7,427.1-242,427.2z M-242,427L-242,427L-242,427L-242,427z"/>
		<path d="M-276.5,416.2c-0.1,0.1-0.1,0.3,0.1,0.6l0,0l0,0l0.1,0.1l0.6,0.8c0.2,0.4,0.6,0.7,1.2,1l0.5,0.3l1.1,0.5l0.6,0.2l1,0.3
			l1.5,0.5c0.5,0.2,0.9,0.3,1.3-0.3c0.1-0.2,0.1-0.5-0.1-0.8c-0.2-0.4-0.6-1-1.2-1.2l-0.7-0.3c-0.4-0.2-0.7-0.4-1.4-0.4
			c-0.5,0-0.8-0.1-1-0.3l-0.4-0.2l-0.5-0.3l-1.2-0.6C-275.5,415.9-276.3,415.8-276.5,416.2z"/>
		<path d="M-272.8,421.3l-1.6,0.2l-1.3,0.3l-0.4,0.1c-0.4,0.1-0.7,0.5-0.7,0.9c0,0.1,0.1,0.4,0.5,0.5l0.6,0.2c0.3,0.1,0.6,0.2,1,0.1
			l0.6,0l0.8-0.1l1.7-0.2l1.7-0.3l0.6,0c0.3,0,0.7,0,1-0.1c0.3-0.1,1.1-0.7,1-1.1c0-0.1-0.1-0.3-0.4-0.3l-0.7,0l-0.9,0l-0.8,0
			l-1.4,0l-0.6,0L-272.8,421.3L-272.8,421.3z"/>
		<path d="M-269,424.2L-269,424.2l-0.7,0.1l-0.8,0.1l-0.6,0.2l-0.7,0.2l-0.4,0.2l-1.7,0.8l-1.3,0.9l-0.2,0.1c-0.5,0.3-0.9,0.5-0.9,1
			c0,0.3,0.1,0.6,0.3,0.7c0.2,0.2,0.5,0.3,0.9,0.2c0.6,0,0.8-0.1,1.2-0.4l0.2-0.1l1.4-0.9l0.3-0.2l0.8-0.5l0.8-0.4l0.5-0.3l0.5-0.2
			l0.8-0.3c0.3-0.2,0.6-0.6,0.5-1C-268.3,424.3-268.5,424.1-269,424.2z"/>
		<path d="M-189.9,430.6c-0.1-0.6-0.1-1.2-0.1-1.6c0.1-0.4,0.1-0.9-0.1-1.5c-0.3-1.4-1.2-3.6-3.1-7.1l-0.2-0.4
			c-0.7-1.4-2.8-4.1-5.1-6.9l-0.9-1.1c-0.7-0.8-1.2-2.1-1.5-3.7c-0.1-0.7-0.3-1.4-0.3-2.2c-0.1-0.9-0.2-2-0.4-3.3
			c-0.4-1.8-1-3.7-2.3-5.4c-1.8-2.3-4-6.1-5-8.4c-1.1-2.8-7.6-13.9-10.3-17.1c-2.6-3.1-10.4-8.5-14.5-10.7
			c-4.3-2.3-9.3-3.9-13.1-4.2c-3.6-0.3-7.9-0.7-9.6-0.9c-2.1-0.3-5.7-0.2-8.8,0.7c-1.5,0.5-3.9,1.8-6.7,3.4c-1.7,1-3.4,2-4.7,2.7
			c-3.6,1.8-12.5,6.6-18.7,12.5c-6,5.8-12.6,16.7-14,19.9c-1.4,3.2-3.1,14.3-3.1,19.7c0,5.6,2.7,19.4,4.1,23.6
			c1.5,4.6,10.3,17,13.8,21.2c4,4.9,7.8,7.1,10.4,8.4c1.3,0.7,4.7,2.5,13.2,7.2c2.3,1.3,7.5,3.1,9.8,3.8l3.9,0.8
			c2.2,0.4,4.7,0.9,6.4,1.4l3.3,0.8c1.5,0.3,2.8,0.6,4.6,1.4c2.4,1.1,4.1,1.1,5.6,1.1c0.8,0,1.5,0,2.4,0.1c4,0.7,8.7,0.8,13.9,0.4
			c4.5-0.4,7-1.7,8.7-2.6c0.9-0.5,1.6-0.8,2.3-1c2.5-0.5,5.4-1.3,8.2-3.1c2.1-1.4,3.4-4,4.3-5.9l0.8-1.6c1.1-1.7,3-7.3,2.4-10
			c-0.4-2.1-1.3-4.7-1.9-6.4l-0.7-2c-0.4-1-1-2.6-1-2.9l-0.3-1c-0.1-0.4-0.3-0.9-0.3-1.4c-0.1-0.3-0.1-0.5-0.1-0.7l0-0.7
			c0-0.8,0-1,0.2-1.2c0.7-0.8,0.9-1.8,1-2.4c0,0,0.1-0.4,0.1-0.5c0.1-0.1,1-0.6,1-0.6c1.1-0.7,2.5-1.5,3.6-2.6
			c1.5-1.5,1.8-2.7,2.2-4.1l0.1-0.5C-189.6,432.9-189.8,431.7-189.9,430.6z M-192.9,430.6c-0.1,0.7-0.2,1.4-0.4,2.5
			c-0.2,1.1-0.1,2-0.6,2.8c-0.5,0.8-1.1,1-1.5,1.3c-0.4,0.3-0.9,0.6-1.3,0.8c-0.4,0.2-0.9,0.5-1.3,0.9c-0.4,0.4-0.9,1.1-1.3,1.5
			c0.1-0.8,0.1-0.6-0.3-0.9c-0.3-0.3-0.5-0.6-1.1-0.7c-0.6-0.1-0.7-0.8-1.4-1c-0.7-0.2-0.6-0.8-1.4-1.3c-0.9-0.5-1-1-1.3-1.3
			c-0.3-0.3-1.1-0.2-0.7,0.3c0.4,0.5,0.4,0.8,0.8,1.3c0.4,0.4,0.3,0.6,0.5,1c0.2,0.3,0.2,0.3,0.4,0.8c0.2,0.5,0,1.2,0,1.7
			c0,0.5-0.4,0.5-0.7,1.1c-0.3,0.6-0.6,0.9-1.2,1c-0.8,0-2.3,0.2-3,0.3l-0.5,0.1l-1.3,0.3l-0.6,0.3c-0.1,0.1-0.2,0.1-0.5,0.1
			c-0.9,0.1-2.4,0.2-3.5,0.4l-2.8,0.6l-0.7,0.1l-1.8,0.2l-1.8,0.5l-1.2,0.3l-1.1,0.2c-1,0.1-2.2,0.3-3.4,0.6l-2.3,0.5l-2,0.4
			c-0.9,0.3-2.7,0.8-3.8,1l-1.5,0.3c-2.7,0.5-4.8,0.9-5.6,1.2c-0.4,0.2-1,0.3-1.7,0.4c-0.8,0.2-1.6,0.3-2.3,0.6
			c-0.8,0.3-1.5,0.5-2.2,0.6l-0.7,0.1l-0.8,0.1l-2.2,0.5l-1.8,0.5l-1.9,0.5l-1.8,0.4l-0.9,0.2l-1.4,0.1c-0.7,0-1.4,0-2.1,0.1l-3,0.8
			l-1.1,0.4c-0.8,0.3-1.7,0.7-2.3,0.7l-2.1,0.4l-0.7,0.2c-0.9,0.2-2,0.6-2.8,1l-0.4,0.2c-0.5,0.2-1.2,0.6-1.2,1.6
			c0,0.1,0,0.3,0.1,0.5c0.2,1,0.6,1.7,1.7,2.1l1.9,0.9l0.5,0.3c0,0,1.3,0.5,1.3,0.5l0.9,0.3l0.9,0.4c0.5,0.2,1.7,0.7,1.9,1l0.8,0.6
			c0.2,0.1,0.3,0.2,0.4,0.4c0.6,1,1.2,1.4,2.3,1.5l0.9,0.1l0.7,0.1l0.5,0.1c0.5,0.1,1.3,0.3,1.8,0.6c0.6,0.3,1.3,0.4,2,0.5
			c0.3,0,0.8,0.1,1,0.2c0.6,0.4,1.2,0.5,1.7,0.6l0.7,0.2l3,0.6c1.1,0.2,1.7,0,2.2-0.1l0.9-0.1l1.4-0.1c0.5-0.1,1-0.1,1.5,0
			c1.1,0.2,2.3,0.3,4.3,0.3l1.8,0h1.9l0.4,0c1-0.1,2.1-0.2,3.3-0.1l1.8-0.1l0.6,0c0.6,0.1,1.1-0.1,1.5-0.2c0.3-0.1,0.7-0.2,1.1-0.2
			l4.8-0.1l0.6,0c1.3-0.1,2-0.1,3-0.3l1.2-0.2c0.7-0.1,1.4-0.2,2.2-0.4l1.4-0.2c0.6-0.1,1.3-0.1,2-0.3l3.2-1.1
			c0.9-0.3,2.4-0.6,3.3-0.8l0.6,0c0.5,0,1.1,0,1.9-0.5c0.6-0.4,0.9-0.9,1.1-1.2c0.3-0.4,0.3-0.4,0.5-0.5l0.9-0.1
			c0.7-0.1,1.5-0.2,2.4-0.7c1.1-0.7,1.5-0.9,2.2-1.8l0.1-0.1c0.4-0.5,0.7-0.9,0.9-1.4c0,0,0,0,0,0.1c0.1,1,0.5,1.4,0.2,2.4
			c-0.3,1-0.8,3.3-1,4.1c-0.2,0.8-0.8,1.6-1.2,2.3c-0.4,0.7-1.2,1.5-1.5,2.6c-0.4,1.1-0.4,1.5-0.9,2.3c-0.5,0.8-0.8,1.3-1.4,1.8
			c-0.6,0.5-0.9,0.1-1.4,0.4c-0.5,0.3-1,0.4-1.4,0.4c-0.4,0-0.7-0.6-1.3-0.5c-0.6,0.1-1.9,1-2.4,1.5c-0.5,0.5-0.3,0.9-1,0.9
			c-0.7,0-1.2,0-1.8,0.4c-0.6,0.3-1.1,0.2-1.4,0.7c-0.3,0.4-1.4,1.2-2,1.4c-0.5,0.2-1,0.5-1.9,0.7c-0.9,0.2-1.7,0.3-2.4,0.5
			c-0.7,0.1-0.7-0.4-1.9,0c-1.2,0.3-1.7-0.2-2.8,0c-1,0.2-1.5,0.3-2.2,0.5c-0.6,0.2-2.7,0.6-3.9,0c-1.2-0.5-3.1-1.1-3.7-1.4
			c-0.6-0.3-1.7-0.5-2.2-0.6c-0.5-0.1-1.1-0.7-2.3-0.9c-1.1-0.3-1.3-0.3-2.6-0.3c-1.3,0-1.7,0-2.5-0.2c-0.8-0.1-2.1-0.2-3.1-0.6
			c-1-0.4-1.6-0.7-3.8-1c-2.2-0.3-3.6-0.5-4.3-0.5c-0.8,0.1-1.5-0.2-2.3-0.3c-0.8-0.1-0.4,0.2-1.9-0.3c-1.6-0.5-1.6-0.9-2.3-1.1
			c-0.7-0.2-1.6-0.9-2.3-1c-0.7-0.2-2.7-0.7-3.2-0.9c-0.5-0.2-0.9-0.5-1.5-0.8c-0.7-0.3-0.6-0.7-1.6-1.1c-1-0.5-0.7-1.2-2-1.7
			c-1.3-0.4-0.8-0.8-2.3-1.1c-1.5-0.3-2.3-1-3.2-1.1c-0.9-0.1-1.5-1-2-1.2c-0.5-0.2-1.4-0.9-2.2-1c-0.8-0.1-1.5-0.9-2.3-1.1
			c-0.8-0.2-1.7-0.8-2.6-1.5c-0.8-0.7-1.2-1.5-1.7-1.9c-0.5-0.4-0.9-1.4-1.7-2c-0.8-0.6-1.2-0.9-1.8-1.7c-0.7-0.8-1.2-1.4-1.5-2
			c-0.3-0.5-0.4-0.9-1.2-1.5c-0.8-0.6-1.6-1.4-2-2.2c-0.4-0.7-0.7-1.1-1.2-1.8c-0.4-0.7-0.8-1.9-1.3-2.4c-0.5-0.5-0.6-1.1-1.2-1.5
			c-0.6-0.5-0.9-1.1-1.2-1.5c-0.3-0.4-0.4-1-0.6-1.6c-0.2-0.6-0.4-1.2-0.9-1.9c-0.4-0.7-1.2-2-1.3-2.5c-0.1-0.5-0.8-2.1-0.9-2.7
			c-0.1-0.6-0.5-1.6-0.6-2.9c-0.1-1.3-0.6-2.5-0.6-3.6c0-1.1,0.1-2.9-0.3-3.9c-0.3-1-0.8-3.4-1.1-4.2c-0.3-0.9-0.1-1.7-0.2-2.7
			c-0.1-1,0.4-2.6,0.3-3.6c-0.1-1-0.1-3-0.2-3.8c-0.2-0.8-0.1-2.9-0.1-3.5c0-0.7,0.2-1.6,0.4-2.6c0.2-1,0.3-2.3,0.6-3.4
			c0.3-1.1,0.6-2.6,1.1-3.4c0.5-0.8,0.8-2.3,1.2-3.1c0.3-0.9,1.1-2.7,1.6-3.6c0.5-0.9,1.2-2,2-2.9c0.9-1,2.6-2.9,3-3.8
			c0.5-0.9,1.1-1.7,1.5-2.3c0.4-0.6,1-1.6,2.2-2.9c1.2-1.3,2.9-2.6,3.6-3.4c0.8-0.8,1.4-1.4,2.5-2.1c1-0.7,1.1-0.9,2.2-1.5
			c1.1-0.6,2.1-1.4,3-1.9c0.9-0.6,2.5-1.7,3.4-2.1c0.8-0.4,1-1,2.4-1.6c1.5-0.6,2-0.9,2.9-1.4c0.8-0.4,1.8-0.8,2.7-1.4
			c0.9-0.6,2.1-0.8,3-1.5s2-1.3,2.7-1.7c0.7-0.4,1.3-0.5,1.8-0.6c0.5-0.1,1.7-0.1,2.4,0.1c1,0.2,2.2-0.1,3.1,0.2
			c0.8,0.2,1.2,0.1,2,0.3c0.8,0.1,1.7,0,2.3,0.3c0.7,0.3,0.8,0.4,1.5,0.6c0.7,0.1,0.8,0,1.3,0.2c0.5,0.2,1,0.2,1.5,0.5
			c0.5,0.3,1.2,0.7,1.4,0.4c0.1-0.3,0-0.7-0.4-0.9c-0.3-0.2-0.8-0.6-1.1-0.7c-0.3-0.1-1-0.5-0.5-0.7c0.4-0.2,1.1,0,1.8-0.1
			c0.7,0,1.1,0.3,1.9,0.3c0.8,0,1.6,0.3,3,0.4c1.4,0.1,2,0.5,2.8,0.7c0.8,0.2,1.5,0.5,1.9,0.8c0.5,0.3,0.1,0.3,1.4,0.7
			c1.4,0.4,1.5,0.3,2.2,0.6c0.7,0.4,2.5,1.3,3.5,1.9c1,0.7,1.6,1.5,2.2,1.9c0.6,0.5,1,1,1.8,1.4c0.8,0.4,1.2,0.6,1.7,1.1
			c0.5,0.5,0.8,1.1,1.2,1.7c0.4,0.6,0.6,0.9,1,1.3c0.4,0.4,0.8,0.7,1.4,1.2c0.6,0.5,0.9,0.6,1.5,1.3c0.6,0.7,1.1,1.9,1.2,2.6
			c0.1,0.7,0.4,0.9,0.7,1.5c0.3,0.6,0.6,0.6,1.2,1.3c0.6,0.8,1.3,2,1.8,2.4c0.5,0.4,1.4,1.5,1.8,2c0.4,0.5,0.7,1.2,1.1,2
			c0.5,0.8,1,1.9,1.1,2.2c0.2,0.4,0.3,1.3,0.5,1.9c0,0.1,0.1,0.2,0.2,0.3c-0.6-0.2-1.2-0.4-1.5-0.4c-0.6-0.2-1.4-0.9-2.6-0.6
			c-1.3,0.3-1.7,0.2-2.4,0.6c-0.7,0.4-1.2,0.4-1.8,0.9c-0.6,0.5-0.7,0.9-1.3,1.4c-0.5,0.5-0.9,0.8-1.5,1.5c-0.6,0.6-0.9,1.4-1.3,1.8
			c-0.4,0.5-0.3,1-0.6,1.7c-0.2,0.7,0,1.1-0.2,1.7c-0.1,0.7,0.2,1,0.7,0.7c0.5-0.4,0.9-0.7,1.1-1.5c0.2-0.8,0.3-1.2,1-1.9
			c0.8-0.7,1.5-1.7,2.1-2.1c0.6-0.4,0.9-0.6,1.7-0.9c0.7-0.3,0.5-0.6,1.3-0.5c0.8,0.1,1.9-0.3,2.8-0.2c0.9,0.1,1.2,0.1,1.7,0.4
			c0.5,0.3,1.1,0.4,1.6,0.9c0.5,0.4,0.2,0.8,1.1,1.4c0.9,0.6,1,0.9,1.5,1.1c0.3,0.1,0.4,0.1,0.5,0.1c0,0,0,0,0.1,0.1
			c0.6,0.8,0.9,1.6,1.2,1.8c0.2,0.2,1.5,1.7,1.7,2.4c0.2,0.8,0.1,1,0,1.6c-0.1,0.6-0.2,1.2,0.1,2.3c0.3,1.1,0,1.1,0.4,1.9
			c0.4,0.8,1,1.9,1.1,2.6c0.2,0.8,0.7,1.6,1.1,2.3c0.3,0.6,0.5,1.5,1.2,2.1c0.7,0.6,1,0.8,1.5,1.4c0.4,0.6,0.6,1,1.2,1.8
			c0.6,0.9,0.5,1,1,1.7c0.6,0.8,1.3,2,1.6,2.6c0.3,0.6,0.6,1.4,1,2.3c0.4,0.8,0.5,1.2,0.9,1.9c0.3,0.7,0.6,0.8,0.8,1.8
			C-192.9,429.5-192.7,429.9-192.9,430.6z M-233.7,462.7c-0.1-0.8,0-1.3,0.8-1.5c0.9-0.3,1.1-0.1,1.5-0.1c0.4,0,1.6,0,2.6,0
			c1,0,1.8-0.3,2.3,0c0.5,0.3,0.7,1.4,0.9,2.7c0.3,1.2,0.6,2.7,0,3c-0.5,0.3-2.2,0.3-2.8,0.3c-0.6,0-2.4,0.1-3.1,0.2
			c-0.7,0.1-1.3,0.1-1.5-0.4c-0.2-0.4-0.4-1-0.3-2C-233.1,463.9-233.6,463.5-233.7,462.7z M-234.6,455.2c-0.1-0.6-0.3-1-0.3-1.6
			c0-0.6-0.1-1,0.1-1.6c0.2-0.5,0.2-1.1,0.8-1.2c0.6-0.1,1.6-0.6,2.2-0.6c0.7,0,1-0.1,1.8-0.2c0.8-0.2,1.8-0.6,2.3-0.2
			c0.5,0.4,0.6,0.9,0.6,1.7c0,0.8,0.1,1.8,0.1,2.6c0,0.8,0.1,1.2,0.1,1.9c0,0.8,0.3,1.4-0.4,2.1c-0.6,0.7-1,0.7-2,0.7
			c-0.9-0.1-1.9,0.1-2.7,0.3c-0.8,0.2-1.6,0.7-2,0.3c-0.5-0.4-0.8-1.2-0.6-1.8C-234.4,456.8-234.4,455.9-234.6,455.2z M-243.3,455.1
			c-0.2-0.8-0.3-1.6,0.2-2c0.6-0.4,2.1-0.7,3-0.9c0.9-0.2,1.5-0.3,2-0.4c0.5-0.1,1.2,0,1.3,0.8c0.2,0.8,0.3,1,0.4,1.8
			c0,0.8-0.1,1.6,0.1,2.3c0.2,0.8,0.6,1.5,0.2,2.1c-0.4,0.6-0.3,0.9-1.1,1.1c-0.7,0.3-2.3,0.3-2.8,0.4c-0.5,0.1-1.1,0.2-1.8,0.1
			c-0.6-0.1-1-0.3-1.2-0.9c-0.3-0.6-0.2-1.7-0.2-2.4C-243.3,456.2-243.1,455.8-243.3,455.1z M-241.8,461.8c0.7-0.3,2.3-0.1,3-0.3
			c0.6-0.2,1.5-0.1,2.4-0.2c1-0.1,1,1.3,1.2,1.8c0.1,0.6,0.6,2.6,0.7,3.4c0.1,0.8-0.9,0.9-1.8,0.9c-0.9,0-1.7,0-2.2,0.1
			c-0.6,0-2.3,0.3-2.9,0.3c-0.6,0-0.9-0.5-0.9-1.4c0-0.9-0.1-1-0.1-1.6c0-0.7,0-1.3-0.1-1.8C-242.7,462.3-242.5,462.1-241.8,461.8z
			 M-225.3,456.9c0-0.7-0.1-1-0.1-1.7c0-0.7-0.2-1.4-0.1-2.2c0.1-0.8-0.1-1-0.2-1.7c-0.1-0.6-0.2-1.1-0.2-1.7c0-0.5,0.6-0.8,1.1-1
			c0.6-0.3,2-0.4,2.6-0.5c0.6-0.1,1.5-0.3,2.1-0.2c0.6,0.1,0.7,0.9,0.9,1.7c0.2,0.8,0.4,1.8,0.4,2.4c0,0.7,0.7,2.7,0.9,3.5
			c0.2,0.8,0,1.7-0.6,2c-0.6,0.2-0.9,0.2-1.5,0.2c-0.7,0-1.4,0-2.2,0.1c-0.8,0-1.2,0.4-1.9,0.1C-225,457.6-225.3,457.5-225.3,456.9z
			 M-224.1,460.7c0.6-0.2,2-0.2,2.7-0.3c0.7,0,1.4-0.2,1.8-0.2c0.4,0,1-0.2,2.1,0.2c1.1,0.4,0.6,1.4,0.8,1.9
			c0.2,0.5,0.5,2.2,0.6,2.7c0,0.6-0.6,0.8-1.3,0.9c-0.7,0-1.6,0.1-2.2,0.3c-0.6,0.1-1.6,0.3-2.5,0.4c-0.9,0.1-1.8-0.2-2-0.6
			c-0.2-0.4-0.4-1.1-0.4-1.7c0-0.6-0.4-1.9-0.4-2.4C-224.9,461.5-224.7,461-224.1,460.7z M-216.8,456.2c-0.2-0.8-0.1-1.3-0.1-1.9
			c0-0.7-0.3-1.6-0.3-2.3c0-0.6-0.2-1.1-0.3-2.3c-0.1-1.2,0-1.8,0.5-2.1c0.8-0.4,3-0.5,3.7-0.4c0.7,0.1,1.3-0.1,1.8,0.3
			c0.5,0.4,0.6,1.7,0.6,2.4c0,0.7,0.5,1.6,0.5,2.5c0.1,0.9,0.4,2.1,0,2.6c-0.4,0.5-1.1,0.6-1.7,0.7c-0.6,0.1-1.5,0.4-2.1,0.8
			c-0.6,0.4-0.8,0.4-1.6,0.5C-216.6,457-216.6,456.9-216.8,456.2z M-214.8,459.2c0.7-0.5,3.2-1,3.9-1.2c0.6-0.2,1.4,0.2,1.6,0.6
			c0.2,0.4,0.4,1,0.6,1.8c0.2,0.9,0.6,2.1,0.7,2.7c0,0.6-0.4,0.6-1,0.9c-0.6,0.3-1.3,0.4-1.9,0.4c-0.6,0-1.2,0.3-2.1,0.5
			c-0.9,0.2-1.3,0-1.5-0.6c-0.2-0.5-0.3-1.1-0.3-1.6c0-0.5-0.6-1.8-0.7-2.3C-215.6,460-215.2,459.5-214.8,459.2z M-202,447.5
			c-0.1-0.5-0.3-1.1-0.4-1.7c0-0.6,0.1-0.8,0.5-0.8c0.3,0,0.4,0.5,0.5,1c0.1,0.5,0.1,0.7,0.3,1.2c0.1,0.6,0.2,1.4,0.1,1.9
			c-0.1,0.5-0.1,1.1-0.4,1.4c-0.3,0.3-0.3-1-0.3-1.4C-201.6,448.7-201.9,448-202,447.5z M-201.9,450.6c0.1,0.6,0,1.3-0.3,1.5
			c-0.2,0.2-1,0.8-1.5,0.9c-0.5,0.1-0.5-0.4-0.7-0.9c-0.2-0.5-0.3-0.7-0.3-1.5c-0.1-0.8-0.3-1.6-0.4-2.2c-0.1-0.6-0.5-1.5-0.6-1.9
			c-0.1-0.5,0.2-0.8,0.7-0.9c0.5-0.1,1.1-0.3,1.4-0.3c0.4,0,0.7,0.7,0.9,1.3c0.1,0.6,0.3,0.7,0.3,1.2
			C-202.3,448.2-202.1,450-201.9,450.6z M-205.5,451.1c0.1,0.7,0.5,2,0.4,2.5c-0.1,0.5-0.6,0.5-1.1,0.5c-0.5,0-0.8,0.3-1.3,0.4
			c-0.5,0.1-1,0.3-1.1-0.2c-0.1-0.5-0.5-1.1-0.5-1.6c0-0.5-0.2-1.3-0.4-2.4c-0.2-1-0.3-1.2-0.4-1.8c-0.1-0.6-0.2-1-0.1-1.4
			c0.1-0.4,0.4-0.9,0.9-1.2c0.5-0.3,0.9-0.4,1.5-0.3c0.6,0.1,0.7,0.7,0.9,1.1c0.3,0.5,0.3,1.6,0.5,2.3
			C-206,449.7-205.6,450.4-205.5,451.1z M-208.2,459c-0.2-0.6-0.5-1.2,0-1.6c0.5-0.4,0.9-0.2,1.5-0.3c0.7-0.1,1.6-0.3,2.1-0.3
			c0.5,0,0.9,1.1,1.1,1.7c0.1,0.7,1,2.3,0.9,2.7c0,0.4-1.1,0.6-1.6,0.8c-0.5,0.2-1.2,0.5-1.7,0.7c-0.6,0.1-1,0-1.1-0.6
			c-0.1-0.6-0.5-0.9-0.6-1.5C-207.8,459.9-207.9,459.7-208.2,459z M-203,456.8c-0.1-0.6,0.1-0.8,0.5-1.1c0.3-0.3,0.9-0.6,1-1
			c0.1-0.4,0.6,0.1,0.8,0.6c0.2,0.5,0.1,0.9,0.4,1.5c0.3,0.6,0.7,1.2,0.7,1.5c0,0.3-0.3,0.6-0.6,1c-0.3,0.4-0.6,0.7-1.1,1
			c-0.4,0.3-0.7-0.2-0.9-0.7C-202.4,459.2-202.9,457.3-203,456.8z M-200.1,455.5c-0.3-0.5-0.4-1-0.5-1.6c-0.1-0.6,0-0.9,0.2-1.2
			c0.5-0.6,0.9,0.9,1.1,1.4c0.2,0.5,0.2,0.8,0.3,1.2c0.2,0.4,0.5,1.3,0.3,1.7c-0.2,0.4-0.5,0.3-0.7-0.1
			C-199.7,456.4-199.8,456-200.1,455.5z M-244.9,457.2c0,0.8,0.2,1.7,0,2.4c-0.2,0.7-1,1-1.6,1.1c-0.6,0.1-1.7,0.1-2.5,0.1
			c-0.8,0-1.4-0.2-1.7-0.8c-0.4-0.6-0.5-1.6-0.5-2.3c0-0.7-0.3-1-0.1-1.7c0.2-0.7,0.9-1.2,1.8-1.5c0.9-0.3,2.1-0.6,2.7-0.8
			c0.6-0.3,1.7-0.2,1.8,0.5C-244.9,455-245,456.5-244.9,457.2z M-250.9,464.8c0.1-0.6,0-0.8,0.1-1.4c0.1-0.6,0.6-0.7,1.1-0.8
			c0.6-0.1,1.3-0.3,2.3-0.3c1,0,1.6,0,2.2-0.2c0.7-0.1,0.9,0.5,1,0.9c0.1,0.4,0.1,1,0.2,1.4c0.1,0.5,0.3,1.8,0.2,2.4
			c-0.1,0.6-0.7,0.7-1.5,0.6c-0.7-0.1-1.3-0.3-2-0.5c-0.6-0.2-1.9,0-2.5-0.1c-0.6-0.1-1.2-0.4-1.3-0.8
			C-251,465.6-250.9,465.4-250.9,464.8z M-257.8,462.2c0.6-0.1,1.1,0,1.6,0.1c0.5,0.1,1,0,1.7,0.1c0.7,0,1.3,0,1.6,0.5
			c0.3,0.4,0.3,1.4,0.3,2.1c0,0.7,0.2,1.4-0.3,1.6c-0.5,0.2-1.3-0.2-1.9-0.1c-0.6,0.1-0.8,0.2-1.3,0c-0.5-0.2-0.9-0.7-1.4-0.8
			c-0.5-0.1-0.8-0.3-0.8-1c0-0.7-0.1-1.3-0.1-1.6C-258.5,462.5-258.3,462.3-257.8,462.2z M-258.5,459.3c0-0.5,0-1.1,0.3-1.6
			c0.3-0.6,0.8-0.7,1.4-0.9c0.6-0.3,1.7-0.5,2.3-0.7c0.6-0.3,1.2-0.1,1.5,0.7c0.3,0.9,0.4,1.9,0.4,2.7c0,0.7-0.3,1.1-0.9,1.5
			c-0.6,0.4-1,0.2-1.5,0.2c-0.5,0-1.2,0.1-1.8,0c-0.7-0.1-1.1,0-1.5-0.5C-258.9,460.1-258.6,459.8-258.5,459.3z M-260,460.5
			c-0.6,0.4-1,0.5-1.7,0.2c-0.7-0.2-1,0.1-1.7,0.1c-0.7,0-0.9,0.1-1.4-0.4c-0.5-0.4-0.3-0.9-0.2-1.4c0.1-0.6,0.4-0.3,0.8-0.7
			c0.8-0.7,1.5-0.6,2.1-0.7c0.6-0.1,1.5-0.2,2,0c0.4,0.2,0.4,0.6,0.4,1.4C-259.6,459.7-259.4,460.1-260,460.5z M-259.7,463.2
			c0,0.5-0.2,1-0.4,1.5c-0.2,0.4-0.6,0.2-1.4,0.1c-0.7-0.1-1.2-0.1-1.8-0.3c-0.6-0.2-1-0.4-1.1-0.9c-0.1-0.5-0.2-0.7-0.1-1.2
			c0.1-0.4,0.4-0.4,0.9-0.5c0.5-0.1,0.7,0.1,1.4-0.1c0.5-0.1,1.5,0.2,2,0.3C-259.7,462.2-259.7,462.7-259.7,463.2z M-268.3,461.4
			c0.5,0,1.3,0.1,1.9,0.1c0.5,0,0.6,0.5,0.5,1.1c-0.1,0.6-0.6,0.4-1.2,0c-0.6-0.4-1.9-0.4-2.4-0.8
			C-270.1,461.4-269,461.4-268.3,461.4z M-268.7,459c0.6-0.1,1.3,0,2-0.3c0.9-0.3,0.8,0.6,0.7,1.3c-0.1,0.7-0.7,0.5-1.2,0.1
			c-0.5-0.4-1.5-0.2-2.2-0.5C-270.1,459.4-269.3,459.1-268.7,459z"/>
	</g>
</g>
</svg>
