<?xml version="1.0" encoding="utf-8"?>
<!-- Generator: Adobe Illustrator 19.0.0, SVG Export Plug-In . SVG Version: 6.00 Build 0)  -->
<svg version="1.1" id="Lager_1" xmlns="http://www.w3.org/2000/svg" xmlns:xlink="http://www.w3.org/1999/xlink" x="0px" y="0px"
	 viewBox="538.8 790.1 283.5 91.2" style="enable-background:new 538.8 790.1 283.5 91.2;" xml:space="preserve">
<style type="text/css">
	.st0{fill:#444444;}
</style>
<g>
	<g id="svg_117">
		<path id="svg_118" class="st0" d="M587.1,873c10.4,0,20-2.3,31.2-7.5v8.3c-11.1,5.2-20.8,7.5-31.2,7.5
			c-26.6,0-48.3-19.3-48.3-47.2c0-1.5,0-2.9,0.2-4.4C541,855.4,561.8,873,587.1,873z M552.2,825.7c0-20.7,15.8-34.5,34.9-34.5
			c10.4,0,20.8,2.9,31.2,9.6v8.3c-10.4-6.7-20.8-9.6-31.2-9.6c-17.5,0-32.7,11.7-34.7,30.4C552.3,828.7,552.2,827.2,552.2,825.7z
			 M737.5,834.1c0,26-21.2,47.2-47.2,47.2s-47.2-21.1-47.2-47.2c0-1.5,0-2.8,0.2-4.3c2,24.1,22.3,43.1,47,43.1
			c24.6,0,44.9-18.9,47-43C737.5,831.3,737.5,832.7,737.5,834.1L737.5,834.1z M724.2,825.6c0-19.1-15.2-34.1-33.8-34.1
			c-18.7,0-33.8,15-33.8,34.1c0,1.5,0,2.9,0.2,4.3c2-17.1,16.3-30.1,33.6-30.1c17.4,0,31.7,12.9,33.6,30.1
			C724.2,828.5,724.2,827.1,724.2,825.6L724.2,825.6z M822.3,854.5c0,15.7-14.3,26.8-31.8,26.8c-12.8,0-24.6-4.5-32.4-14.2l4.6-3.6
			c7.5,6.5,17.3,9.5,27.8,9.5c16,0,29.3-9.3,31.5-22.9C822.2,851.4,822.3,852.9,822.3,854.5L822.3,854.5z M809.3,846.1
			c0,1.7-0.2,3.2-0.6,4.6c-5.7-15.8-48.1-10.4-48.1-39.5c0-1.4,0.1-2.8,0.3-4.1C765.1,833.2,809.3,826.6,809.3,846.1L809.3,846.1z
			 M815.8,794.3c1.6,1.2,3.1,2.6,4.5,4.3l-8.9,8.2c-4.7-4.7-12-8.3-21.1-8.3c-7.5,0-13.8,2.9-15.9,8.3c-0.5-1.2-0.8-2.4-0.8-4
			c0-8.3,7.4-12.7,16.7-12.7c9.1,0,16.4,3.6,21.1,8.3L815.8,794.3z"/>
	</g>
</g>
</svg>
