<?xml version="1.0" encoding="utf-8"?>
<!-- Generator: Adobe Illustrator 19.0.0, SVG Export Plug-In . SVG Version: 6.00 Build 0)  -->
<svg version="1.1" id="Lager_1" xmlns="http://www.w3.org/2000/svg" xmlns:xlink="http://www.w3.org/1999/xlink" x="0px" y="0px"
	 viewBox="0 0 283.5 187.3" style="enable-background:new 0 0 283.5 187.3;" xml:space="preserve">
<style type="text/css">
	.st0{fill-rule:evenodd;clip-rule:evenodd;fill:#D80F16;}
</style>
<g>
	<path id="XMLID_5_" class="st0" d="M111.8,69.8c5.7,0,15.5-3.1,17.4,1.7c2.3,5.8-5.2,8.9-7.7,11.6c-5.9,6.4-9.2,15.1-20.7,16
		c-9.8,25.5-19.2,51.5-28.4,78.8c-1.3,3.8-2.2,9.2-5.8,9.4c-3.2,0.2-4.7-3.6-6.6-5.5c-3.3-3.3-8.8-5.9-9.6-9.9
		c-0.5-2.6,0.9-6.5,1.7-9.4c5.3-19,12.7-38.8,19-56.5c-10.9,1.8-22.8,5-34.2,7.2c-6.7,17.3-13.3,35.3-19.8,53.7
		c-1.8,5-4.5,14.6-11.3,12.4c-6-2-0.6-13.3,0.3-16c5.7-16.5,11.1-32.4,17.4-48c-2-0.9-4.3-1.1-6.1-2.2c-3.2-1.9-5.3-6.9-9.1-9.4
		c-3.1-2-9.2-3-8-8.3c0.5-2.3,5.1-3.4,7.4-4.1c9.1-2.8,18.1-4.9,27.3-7.2C43.6,62.3,52.9,38.4,62.2,16c1.3-3.2,2.4-7,4.1-9.4
		c1.5-2,6.4-6,9.9-3.6c2.6,1.8,0.8,7.9-0.3,10.5c-9.1,22.4-18.1,44.6-26.7,67c11.2-2.2,22.3-4.5,33.6-6.6
		c6.2-15.8,14.4-35,21.5-51.8c2.1-4.9,4.3-14,8.3-16c2.1-1.1,6.6-1.9,9.6-3c2.9-1.1,6.4-2.8,9.4-3c10.3-0.9,1.3,15.3,0,18.7
		C124.8,36.1,118.5,52.9,111.8,69.8z"/>
	<path class="st0" d="M119.2,130.7c0.4,2.5,1.6,4.3,1.9,6.9c1.8-1.1,8.5-6.1,9.6-0.6c1,4.9-3.7,8.3-5.8,11.6
		c0.9,2.9,3.5,6.8,1.4,10.2c-3.5,1.8-6.3-1-6.9-3.9c-2.8,1.7-4.9,3.9-8.3,4.4c-8.7,1.3-13.4-4.3-13.5-11.6
		c-0.2-10.3,8.2-15.1,12.4-20.9c-1.4-4.6-2.7-7.5-2.2-11.3c1.4-12.1,21.7-12.5,19.8,1.4C126.9,122.9,121.8,125.8,119.2,130.7z
		 M115.9,120.5c1.6-0.4,3.7-2.5,3.6-5.5C116.5,111.7,114.2,117.2,115.9,120.5z M109.8,146.1c0.2,0.1,0.5,0,0.6,0.3
		c2.3-0.4,3.8-1.5,5-3c-0.8-1.8-0.9-4.3-2.2-5.5C111.9,140.2,108.4,142.8,109.8,146.1z"/>
	<path id="XMLID_1_" class="st0" d="M247.9,48.5C231.5,81.8,216,118.8,201.6,156c-1.7,4.5-3.4,14-7.7,14.3c-3.5,0.3-4.9-4.2-6.9-6.6
		c-3.2-3.9-7.2-6.5-8.8-11c-2.4-6.7-1.8-15.9-1.4-24.5c1.1-24.3,4.4-50,5.8-73c-12.4,37-24,74.4-35.3,113c-1.4,4.8-3.4,12.8-9.9,11
		c-6.5-1.8-0.1-17.7,0.8-20.9c13.2-47.1,26.6-92,43-136.4c1.3-3.5,2.6-7.7,4.1-9.6c2.7-3.3,8.1-4.1,13.2-6.3
		c3.1-1.4,11.7-5.8,15.2-2.8c2.1,1.9,1,10.3,0.6,15.4C211.1,55.6,203.4,86,202.7,126c13.4-36,30.7-71.3,47.1-106.4
		c2.4-5,5-10.9,8.8-13c1.4-0.7,3.9-1,5.8-1.7c4.5-1.5,9.5-4.5,13.8-4.7c7.6-0.2,5.1,8.3,3.9,13.5c-12.6,53-22.9,107.9-33.6,163.1
		c-0.8,4.1-1,9.6-3.9,10.2c-4.8,1.1-7.1-4.7-9.9-7.2c-3-2.7-8.4-4.8-9.1-8.5c-0.7-3.9,1.6-12.1,2.2-16
		C233.7,119.2,240.8,83.7,247.9,48.5z"/>
</g>
</svg>
