<?xml version="1.0" encoding="utf-8"?>
<!-- Generator: Adobe Illustrator 19.0.0, SVG Export Plug-In . SVG Version: 6.00 Build 0)  -->
<svg version="1.1" id="Lager_1" xmlns="http://www.w3.org/2000/svg" xmlns:xlink="http://www.w3.org/1999/xlink" x="0px" y="0px"
	 viewBox="-329.1 298.8 283.5 244.3" style="enable-background:new -329.1 298.8 283.5 244.3;" xml:space="preserve">
<style type="text/css">
	.st0{fill:#F5B1B6;}
	.st1{fill:#E95052;}
	.st2{fill:#529A5C;}
	.st3{fill:#FFFFFF;}
</style>
<path class="st0" d="M-188.4,504c10.8,30.1,45.9,44.8,75,31.5c13.6-6.3,24.3-18,29.1-32.3c2.6-7.7,3.5-15.9,2.5-24
	c-0.4-3.7-1.5-7.2-2.1-10.9c-0.7-4-0.5-8,0.3-12c0.9-3.9,2.5-7.8,3.8-11.6c2-5.8,4-11.6,6-17.4c8.3-24.1,16.6-48.2,24.9-72.4
	c2.8-8.1,3.9-16.6,2.3-25.1c0.3,1.7,0,3.6,0.6,5.2c0-0.1,0-0.4-0.1-0.5c-0.2-1.4-1.6-0.1-2.1,0.3c-1.8,1.7-3.4,3.8-5.1,5.7
	C-58.4,346.8-193.7,489-188.4,504"/>
<path class="st1" d="M-47.7,342.5c-1.6,0.6-205.4,163.8-205.4,163.8c17.7,26.2,49.5,40.4,80.8,36.1c30.9-4.2,57.5-25.8,68-55.2
	c2.7-7.6,4.3-15.7,4.7-23.7c0.4-8.5-1.2-16.4-2.3-24.8c-1-7.3,0.5-15,4.4-21.3c1.5-2.4,3.3-4.6,5-6.7c9.2-11.3,18.4-22.7,27.6-34
	c2.6-3.2,5.5-6.4,7.9-9.8c3.4-5,6.8-10.3,8.5-16.2C-48.2,349.8-46,341.9-47.7,342.5z"/>
<path class="st2" d="M-51.7,317.3c-12-19.2-37.3-23.7-56.2-12.4c-6.2,3.7-12.5,7.5-18.7,11.2c-6.9,4.1-13.5,8.4-21.9,9
	c-7.3,0.5-13.6-1.8-20-5.1c-6.2-3.2-12.7-5.8-19.4-7.7c-13.4-3.9-27.6-5.3-41.5-4c-26.7,2.5-52.1,15-70.4,34.7
	c-32.1,34.5-38.7,87.5-15.8,128.7c23.2,41.9,72.3,64.4,119.1,54.6c24.7-5.2,47.4-19,63.3-38.7c16.4-20.3,24.1-44.9,24.5-70.7
	c0.2-11.5,6.5-21.9,16.3-27.7c6-3.6,11.9-7.1,17.9-10.7c5.9-3.5,12.2-6.7,17-11.6c8.1-8.1,12.4-19.6,11.6-31
	C-46.2,329.4-48.2,322.9-51.7,317.3z M-75.1,356c-9.6,5.7-22.3,2.5-28-7.1c-5.9-9.8-2.3-22.9,7.7-28.4c9.8-5.4,22.4-1.7,27.8,8.1
	C-62.5,338-65.8,350.5-75.1,356z"/>
<path class="st3" d="M-277.8,422.7c2.5,3.2,4.9,6.3,7.4,9.5c1,1.3,2,2.6,3.1,3.9c1,1.3-2.2,3.4-3,4.1c-0.8,0.7-3.3,4-4.7,3.6
	c-1-0.3-2-2.3-2.6-3.1c-2.6-3.3-5.2-6.6-7.8-10c-1,1.1-2,2.2-2.9,3.3c-0.6,0.7-0.2,3-0.2,3.9c0,1.2,0.4,3.1,0,4.2c0,1.5-2.5,1-3.4,1
	c-1.3,0-7.8,0.9-7.8-1.1c0-1.7,0-3.3,0-5c0-14.6,0-29.1,0-43.7c0-0.8,0-1.6,0-2.4c0-1.7,2.8-1.1,3.9-1.1h6.3c1.4,0,1,2.4,1,3.3
	c0,8.6,0,17.2,0,25.8c2.6-2.9,5.1-5.7,7.7-8.6c1.3-1.4,2.6-2.9,3.8-4.3c1.2-1.3,2-0.5,3.2,0.4c1.7,1.3,3.4,2.6,5,4
	c1.3,1-0.4,2.4-1.1,3.2C-272.5,416.6-275.2,419.6-277.8,422.7z M-202.1,422.7c2.5,3.2,4.9,6.3,7.4,9.5c1,1.3,2,2.6,3.1,3.9
	c1,1.3-2.2,3.4-3,4.1c-0.8,0.7-3.3,4-4.7,3.6c-1-0.3-2-2.3-2.6-3.1c-2.6-3.3-5.2-6.6-7.8-10c-1,1.1-2,2.2-2.9,3.3
	c-0.6,0.7-0.2,3-0.2,3.9c0,1.2,0.4,3.1,0,4.2c0,1.5-2.5,1-3.4,1c-1.2,0-7.8,0.9-7.8-1.1c0-1.6,0-3.1,0-4.7c0-14.6,0-29.2,0-43.8
	c0-0.9,0-1.7,0-2.6c0-1.7,2.3-1.2,3.4-1.2h6.7c1.4,0,1.1,2.1,1.1,3c0,8.7,0,17.4,0,26.1c2.6-2.9,5.1-5.7,7.7-8.6
	c1.3-1.4,2.6-2.9,3.8-4.3c1.2-1.3,2-0.5,3.2,0.4c1.7,1.3,3.4,2.6,5,4c1.3,1-0.4,2.4-1.1,3.2c-1.6,1.8-3.2,3.6-4.8,5.4
	C-199.5,419.7-202.1,421.9-202.1,422.7z M-147.9,416c-1,0-3.7,0.5-4.3-0.5c-0.7-1.2-0.1-3.7-0.1-5c0-1-0.5-3.5,1.1-3.5
	c0.8,0,3.3,0.5,3.3-0.4c0-3.5,0-7,0-10.5c0-1.1,0.1-2,1.4-2c1.9,0,3.9,0,5.8,0c1.1,0,2.4-0.2,2.4,1.3c0,1.6,0,3.3,0,4.9
	c0,1.8,0,3.6,0,5.4c0,1.5,0,1.2,1.5,1.2c1.6,0,3.2,0,4.9,0c1.6,0,1.1,3,1.1,4c0,1.1,0.5,3.4-0.1,4.5c-0.6,1.1-3.9,0.5-4.9,0.5
	c-0.3,0-2.5-0.1-2.5,0.1c0,1,0,2.1,0,3.1c0,3.4,0,6.7,0,10.1c0,1.1-0.1,2.3,0.3,3.4c0.3,0.9,0.8,1.7,1.8,2c1.3,0.5,3-0.2,4.2,0.4
	c1,0.5,0.6,2.9,0.6,3.8c0,1.1,0.4,2.9,0,3.9c0,2.1-6.1,1.4-7.5,1.2c-2-0.3-4-1-5.5-2.3c-2.8-2.4-3.5-6.3-3.5-9.9
	C-147.9,426.5-147.9,421.2-147.9,416z M-171,434.9c3.4,0,6.2-1.1,9.3-2.5c2-0.9,2.4,1.1,3,2.6c0.4,0.9,2.2,3.6,1.2,4.5
	c-2.7,2.4-6.3,3.7-9.8,4.3c-15.4,2.6-28-13.8-19.9-27.8c3.6-6.2,10.8-9.7,17.9-9c7.2,0.7,12.3,6.3,13.8,13.1
	c0.3,1.4,1.5,8.8-0.9,8.8c-0.6,0.2-1.7,0-2.3,0c-3.9,0-7.8,0-11.7,0c-2.6,0-5.2,0-7.8,0c-1.7,0,0.2,2.2,0.8,2.8
	C-175.8,433.5-173.6,434.8-171,434.9z M-171.2,416.5c-2.1,0-4.1,0.7-5.7,2.1c-0.2,0.2-2.6,2.8-1.6,2.8c2,0,3.9,0,5.9,0
	c2.2,0,4.4,0,6.6,0c1.2,0,0.5-1.5,0.1-2.2C-167.1,417.4-169.1,416.5-171.2,416.5z M-266,424.3c0-10.2,8.6-18.8,18.8-18.7
	c9.9,0,18.3,8,18.7,17.9c0.4,10.6-8.1,19.7-18.7,19.7C-257.4,443.2-266.1,434.5-266,424.3C-266,421.7-266,426.8-266,424.3z
	 M-256,424.3c0,4.9,4,8.9,8.9,8.9c4.8,0,8.8-4.1,8.8-8.9C-238.4,412.9-256.1,412.9-256,424.3z"/>
<circle class="st3" cx="-255.7" cy="395.6" r="5.7"/>
<circle class="st3" cx="-238.8" cy="395.6" r="5.7"/>
</svg>
