<?xml version="1.0" encoding="utf-8"?>
<!-- Generator: Adobe Illustrator 19.0.0, SVG Export Plug-In . SVG Version: 6.00 Build 0)  -->
<svg version="1.1" id="Lager_1" xmlns="http://www.w3.org/2000/svg" xmlns:xlink="http://www.w3.org/1999/xlink" x="0px" y="0px"
	 viewBox="226.1 394.5 283.5 53.3" style="enable-background:new 226.1 394.5 283.5 53.3;" xml:space="preserve">
<style type="text/css">
	.st0{fill:none;}
</style>
<g>
	<title>background</title>
	<rect id="canvas_background" x="226.1" y="394.5" class="st0" width="283.5" height="53.3"/>
</g>
<g>
	<title>Layer 1</title>
	<path id="svg_1" d="M336.5,395.3c-14.4,0-26.2,11.7-26.2,26c0,14.3,11.7,25.9,26.2,25.9c14.4,0,26.2-11.6,26.2-25.9
		C362.6,407,350.9,395.3,336.5,395.3z M336.5,440.3c-10.4,0-18.8-8.5-18.8-19s8.4-19,18.8-19c10.4,0,18.8,8.5,18.8,19
		S346.9,440.3,336.5,440.3z M412.3,429.8L375,394.9v52.2h7.3v-35.7l37.3,35.9v-51.9h-7.3 M471.9,395.4H462l-20,20.1v-20.1h-7.3v51.7
		h7.3V425l0.3-0.3l20.1,22.5h10l-24.9-27.5 M489.5,423.8v-28.4h-7.3l0,51.7h7.3v-6.8c4.4,3.9,11.3,6.8,19.7,6.8v-6.5
		C500.7,440.6,489.5,435.9,489.5,423.8L489.5,423.8z M291.1,395.1l-17.8,36.8l-17.7-36.7l-6.3,30.8c-2.1,8.9-14.4,14.6-22.8,14.7
		v6.5c6.8,0,14.1-2.7,19.8-6.8l-1.4,6.8h7.4l5.8-29.9l15.2,29.9l14.9-30.4l6.2,30.4h7.4L291.1,395.1L291.1,395.1z"/>
</g>
</svg>
