<?xml version="1.0" encoding="utf-8"?>
<!-- Generator: Adobe Illustrator 19.0.0, SVG Export Plug-In . SVG Version: 6.00 Build 0)  -->
<svg version="1.1" id="Lager_1" xmlns="http://www.w3.org/2000/svg" xmlns:xlink="http://www.w3.org/1999/xlink" x="0px" y="0px"
	 viewBox="0 0 283.5 46.4" style="enable-background:new 0 0 283.5 46.4;" xml:space="preserve">
<style type="text/css">
	.st0{fill-rule:evenodd;clip-rule:evenodd;fill:#1825AA;}
</style>
<polygon id="XMLID_7_" class="st0" points="50.8,34.7 50.9,0.7 64.2,0.6 64.2,45.9 41.2,45.9 13.5,11.7 13.4,45.8 0.1,45.9 0,0.7 
	0.2,0.6 23.2,0.6 50.8,34.7 "/>
<path id="XMLID_6_" class="st0" d="M212.9,0.7l0.1,45.2h-14.1l-0.1-45.2l0.1-0.1C203.6,0.6,208.3,0.5,212.9,0.7L212.9,0.7z"/>
<polygon id="XMLID_5_" class="st0" points="149.5,22.5 149.6,22.5 151.3,21.1 174,0.7 192.8,0.7 166.9,22.6 166.9,22.8 196.1,45.8 
	175.6,45.9 149.7,22.7 149.5,22.9 149.5,45.9 135.4,45.9 135.4,0.7 149.5,0.7 149.5,22.5 "/>
<path class="st0" d="M113.3,0.1c5.9,0.2,12.2,0.7,15.3,6.4c0.7,1.6,1.1,3.3,1,5.3l-0.1,24.6c-0.2,3.3-2.5,6.2-5.3,7.8
	c-6.1,2.7-13.6,2-20.8,2.2c-8.5-0.1-17.1,0.4-25-1c-3.5-0.5-7.2-3.4-8.2-6.9l-0.5-2.8L70,9.6c0.1-3.3,3-6.2,5.8-7.7
	C80.4,0,85.9,0.2,91.1,0L113.3,0.1L113.3,0.1z M85.6,11.3c-1.2,0.2-2.7,0.7-2.8,2.1c0,6.7-0.2,13.6,0.1,20.3c0.4,1.1,1.7,1,2.5,1.3
	L111,35c2.2-0.2,4.8,0.4,6-1.8l0.1-19.1l-0.2-1.5c-0.4-0.9-1.2-1-2-1.2L85.6,11.3L85.6,11.3z"/>
<path class="st0" d="M283.5,45.7v0.2h-15.6c-1.4-2.6-2.8-5.1-4.1-7.7l-0.3-0.1h-27.7l-4.3,7.7l-15.8,0.1l24.9-45.2h18.3L283.5,45.7
	L283.5,45.7z M249.6,12l-8.7,16.1h17.4C255.4,22.8,252.5,17.3,249.6,12L249.6,12z"/>
</svg>
