<?xml version="1.0" encoding="utf-8"?>
<!-- Generator: Adobe Illustrator 19.0.0, SVG Export Plug-In . SVG Version: 6.00 Build 0)  -->
<svg version="1.1" id="Lager_1" xmlns="http://www.w3.org/2000/svg" xmlns:xlink="http://www.w3.org/1999/xlink" x="0px" y="0px"
	 viewBox="0 0 283.5 183.4" style="enable-background:new 0 0 283.5 183.4;" xml:space="preserve">
<style type="text/css">
	.st0{fill:url(#XMLID_54_);}
	.st1{fill:url(#XMLID_55_);}
	.st2{fill:url(#XMLID_56_);}
	.st3{fill:#FFFFFF;}
	.st4{fill:url(#SVGID_1_);}
	.st5{fill:#55514F;}
</style>
<g>
	<g>
		
			<radialGradient id="XMLID_54_" cx="-144.8929" cy="537.5252" r="200.5286" gradientTransform="matrix(0.6825 0 0 0.6825 235.4027 -236.9842)" gradientUnits="userSpaceOnUse">
			<stop  offset="0" style="stop-color:#FFFFFF"/>
			<stop  offset="0.1348" style="stop-color:#E5E67F"/>
			<stop  offset="0.3595" style="stop-color:#6CB64B"/>
			<stop  offset="0.5618" style="stop-color:#49A334"/>
			<stop  offset="0.764" style="stop-color:#192017"/>
			<stop  offset="1" style="stop-color:#018337"/>
		</radialGradient>
		<path id="XMLID_26_" class="st0" d="M185.7,17.1c26.2,22.7,27.8,58.9,5,84.3c-22.8,25.4-54.8,30.3-81,7.7
			c-26.2-22.7-29-61.6-6.2-87C126.3-3.3,159.5-5.6,185.7,17.1z"/>
		
			<radialGradient id="XMLID_55_" cx="-165.7312" cy="516.9845" r="178.2892" gradientTransform="matrix(0.6825 0 0 0.6825 236.4009 -236.9842)" gradientUnits="userSpaceOnUse">
			<stop  offset="0" style="stop-color:#FFFFFF"/>
			<stop  offset="0.1348" style="stop-color:#97C44D"/>
			<stop  offset="0.1785" style="stop-color:#7BB246"/>
			<stop  offset="0.2602" style="stop-color:#49973D"/>
			<stop  offset="0.3253" style="stop-color:#208839"/>
			<stop  offset="0.3652" style="stop-color:#018337"/>
			<stop  offset="0.5506" style="stop-color:#41A345"/>
			<stop  offset="0.5803" style="stop-color:#419A44"/>
			<stop  offset="0.6357" style="stop-color:#3F8242"/>
			<stop  offset="0.7109" style="stop-color:#375E39"/>
			<stop  offset="0.802" style="stop-color:#232E22"/>
			<stop  offset="0.8315" style="stop-color:#191E17"/>
			<stop  offset="1" style="stop-color:#1A4720"/>
		</radialGradient>
		<path id="XMLID_25_" class="st1" d="M107.9,29.5c-21.8,19.1-23.4,52.6-3.6,74.8c19.8,22.3,53.6,24.9,75.5,5.8
			c21.8-19,23.4-52.6,3.6-74.8C163.5,13.1,129.7,10.5,107.9,29.5z"/>
		
			<radialGradient id="XMLID_56_" cx="-421.056" cy="417.3422" r="112.1192" gradientTransform="matrix(0.6582 0 0 0.6582 398.9995 -234.7767)" gradientUnits="userSpaceOnUse">
			<stop  offset="0" style="stop-color:#FFFFFF"/>
			<stop  offset="0.1292" style="stop-color:#ABCE76"/>
			<stop  offset="0.2865" style="stop-color:#56AC3F"/>
			<stop  offset="0.4775" style="stop-color:#018337"/>
			<stop  offset="0.7303" style="stop-color:#1C321E"/>
			<stop  offset="1" style="stop-color:#1B4621"/>
		</radialGradient>
		<path id="XMLID_24_" class="st2" d="M171.2,95.5c-18.2,14.4-45,11.8-60-5.8c-15-17.6-12.4-43.5,5.8-57.9
			c18.1-14.4,45-11.8,59.9,5.8C191.9,55.3,189.3,81.2,171.2,95.5z"/>
		<g>
			<path id="XMLID_23_" class="st3" d="M125.2,16.7c1.9,0.5,3.1,2.5,2.6,4.4c-0.5,1.9-2.5,3-4.4,2.5c-1.9-0.5-3.1-2.5-2.6-4.4
				C121.3,17.3,123.3,16.2,125.2,16.7z"/>
			<path id="XMLID_22_" class="st3" d="M129.1,23.9c1.3,0.4,2.1,1.7,1.8,3c-0.3,1.3-1.7,2.1-3,1.7c-1.3-0.4-2.1-1.7-1.8-3
				C126.4,24.3,127.8,23.6,129.1,23.9z"/>
			<path id="XMLID_21_" class="st3" d="M133.7,30.7c0.9,0.2,1.4,1.1,1.2,2c-0.2,0.9-1.1,1.4-2,1.1c-0.9-0.2-1.4-1.1-1.2-2
				C131.9,31,132.8,30.5,133.7,30.7z"/>
		</g>
		
			<radialGradient id="SVGID_1_" cx="-56.329" cy="505.8804" r="170.1803" gradientTransform="matrix(0.56 0 0 0.56 191.9582 -257.6398)" gradientUnits="userSpaceOnUse">
			<stop  offset="0" style="stop-color:#FDFEFF"/>
			<stop  offset="0.1217" style="stop-color:#F6F7F8"/>
			<stop  offset="0.3933" style="stop-color:#EAEAEB"/>
			<stop  offset="1" style="stop-color:#454645"/>
		</radialGradient>
		<path class="st4" d="M95.4,27.5c-19.6,28.7-12.2,68,16.5,87.6c28.8,19.6,68,12.2,87.6-16.5c19.6-28.8,12.2-68-16.5-87.6
			C154.3-8.6,115-1.2,95.4,27.5z M195.2,69.3c-0.3,8-2.9,15.6-8.5,23.6c-16.1,22.9-49.9,28-73.2,12.1C97.6,94.2,89.7,76.1,91.3,58.4
			c2.3,6.2,12.3,11.9,20,11.9c10.5,0,22.2-4.7,32.5-12.1c12.5-9,22.3-14.7,31.4-14C183.7,44.9,195.7,53.8,195.2,69.3z M148.5,31.6
			c-14,17.4-25.8,24.2-36.9,26.2c-8.2,1.5-19.4-5.7-16-16.3c1.1-3.3,2.6-6.6,4.7-9.6c9.6-14,24.9-21.9,40.7-22.7
			C152.1,8.7,161,16.2,148.5,31.6z"/>
	</g>
	<g>
		<path id="XMLID_17_" class="st5" d="M172.6,175.4c-2.6-0.5-4.1-1.7-4.5-4c-0.1-0.4-0.1-0.9-0.1-3.8v-4.3c0-2.5,0-3.2,0.1-3.6
			c0.4-1.9,1.8-3.3,4.4-3.9c0.8-0.2,1.5-0.2,6.1-0.2c0,0,6,0,6.2,0c0,0.3,0,3.5,0,3.8c-0.4,0-6.4,0-6.4,0c-3.5,0-3.9,0.1-4.3,0.2
			c-0.6,0.2-1,0.6-1.2,1.2c-0.1,0.3-0.1,0.9-0.1,2.6v4.1c0,2.2,0,2.8,0.2,3.1c0.2,0.5,0.6,0.8,1.2,1c0.4,0.1,1,0.2,4.4,0.2
			c0,0,6.2,0,6.6,0c0,0.3,0,3.5,0,3.8c-0.4,0-6.9,0-6.9,0C174.1,175.6,173.4,175.6,172.6,175.4z"/>
		<path id="XMLID_16_" class="st5" d="M140.5,163.5c0-3.5,0.1-3.8,0.2-4.3c0.5-1.6,1.8-2.7,3.5-3.2c0.8-0.2,1.7-0.4,5.9-0.4
			c0,0,2.9,0,3,0c0,0.3,0,3.5,0,3.8c-0.4,0-3.1,0-3.1,0c-2.8,0-3.3,0.1-3.6,0.2c-0.4,0.2-0.7,0.4-0.8,0.7c-0.1,0.3-0.2,0.6-0.2,2.6
			c0,0,0,12.3,0,12.7c-0.4,0-4.5,0-4.9,0C140.5,175.2,140.5,163.5,140.5,163.5z"/>
		<path class="st5" d="M189.1,160.8L189.1,160.8L189.1,160.8 M189.1,160.8L189.1,160.8L189.1,160.8z"/>
		<path id="XMLID_13_" class="st5" d="M221.6,167.2c-2.4,0-3.6-0.1-4.4-0.2c-2.3-0.5-3.8-1.7-4.3-3.6c-0.1-0.4-0.2-1.2-0.2-1.9v-0.2
			c0-1.2,0.1-1.9,0.3-2.4c0.6-1.7,2.1-2.6,4.4-3c1-0.2,2.4-0.2,6.3-0.2c0,0,7.3,0,7.5,0c0,0.4,0,3.5,0,3.8c-0.4,0-11.1,0-11.1,0
			c-2,0-2.4,0.6-2.4,1.9c0,1.2,0.3,2,2.4,2h3c2.8,0,3.5,0.1,4.2,0.2c2.8,0.5,4.1,2,4.5,3.8c0.1,0.5,0.2,1.4,0.2,2.1v0.2
			c0,0.9,0,1.7-0.1,2.1c-0.4,2-1.4,3.2-4.1,3.7c-0.8,0.1-1.3,0.2-4.9,0.2c0,0-9.4,0-9.8,0c0-0.3,0-3.5,0-3.8c0.4,0,11.3,0,11.3,0
			c2.1,0,2.8-0.2,2.8-2.3c0-1.8-0.9-2.3-2.9-2.3H221.6z"/>
		<path id="XMLID_12_" class="st5" d="M198.2,167.2c-2.4,0-3.6-0.1-4.4-0.2c-2.3-0.5-3.8-1.7-4.3-3.6c-0.1-0.4-0.2-1.2-0.2-1.9v-0.2
			c0-1.2,0.1-1.9,0.3-2.4c0.6-1.7,2.1-2.6,4.3-3c1-0.2,2.4-0.2,6.3-0.2c0,0,7.3,0,7.5,0c0,0.4,0,3.5,0,3.8c-0.4,0-11.1,0-11.1,0
			c-2,0-2.4,0.6-2.4,1.9c0,1.2,0.3,2,2.4,2h3c2.8,0,3.5,0.1,4.2,0.2c2.8,0.5,4.1,2,4.5,3.8c0.1,0.5,0.2,1.4,0.2,2.1v0.2
			c0,0.9,0,1.7-0.1,2.1c-0.4,2-1.4,3.2-4.1,3.7c-0.8,0.1-1.4,0.2-4.9,0.2c0,0-9.4,0-9.8,0c0-0.3,0-3.5,0-3.8c0.4,0,11.3,0,11.3,0
			c2.1,0,2.8-0.2,2.8-2.3c0-1.8-0.9-2.3-2.9-2.3H198.2z"/>
		<path id="XMLID_11_" class="st5" d="M12.7,171.6c2.5,0,3.5-0.6,3.9-1.7c0.1-0.3,0.2-0.7,0.2-1.7v-0.6c0-0.9-0.1-1.4-0.2-1.7
			c-0.4-1.2-1.5-1.7-3.8-1.7l-4.9,0c-4.6,0-7.3-2.2-7.8-5.2C0,158.7,0,157.9,0,156.7v-0.3c0-1.1,0-1.9,0.1-2.3
			c0.4-3.1,2.7-4.8,6.6-5.2c1-0.1,2.8-0.1,3.8-0.1c0,0,9.8,0,9.9,0c0,0.3,0,3.7,0,4.1c-0.4,0-11.6,0-11.6,0c-2,0-3.1,0.4-3.5,1.5
			c-0.1,0.3-0.2,1-0.2,1.9v0.4c0,0.9,0.1,1.6,0.1,1.8c0.3,1.4,1.5,1.8,3.8,1.8l4.8,0c5.1,0,7.6,1.7,8,4.9c0.1,0.4,0.1,1.6,0.1,2v1.1
			c0,0.4,0,1.6-0.1,2c-0.4,3.1-2.3,4.9-5.9,5.3c-0.6,0.1-2.3,0.1-4.6,0.1c0,0-10.6,0-11,0c0-0.3,0-3.7,0-4
			C0.8,171.6,12.7,171.6,12.7,171.6z"/>
		<path class="st5" d="M47.6,159.7c-0.5-2.1-1.8-3.4-4.6-3.9c-0.7-0.1-1.5-0.2-5.1-0.2h-1.8c-2.5,0-3.7,0.1-4.6,0.2
			c-3,0.4-4.5,1.6-5,3.8c-0.2,0.6-0.2,1.4-0.2,3.9v3.8c0,2.5,0.1,3.8,0.3,4.4c0.6,1.7,1.8,3,3.9,3.6c0.9,0.3,2.3,0.4,5.8,0.4h1.8
			c3.3,0,4.4-0.1,5.2-0.3c2.2-0.6,3.7-1.9,4.2-3.9c0.1-0.5,0.2-1.6,0.2-3.6V164C47.8,161.3,47.8,160.2,47.6,159.7 M43,167.9
			c0,1.8-0.1,2.5-0.2,2.8c-0.2,0.5-0.5,0.8-1,1c-0.4,0.2-1.1,0.2-3.4,0.2H36c-2.4,0-3.5-0.1-3.8-0.3c-0.4-0.2-0.7-0.5-0.9-1
			c-0.1-0.3-0.2-1.4-0.2-3.6v-3.2c0-2.1,0-3.1,0.1-3.3c0.2-0.5,0.6-0.8,1.2-1c0.4-0.1,1.2-0.2,3.2-0.2h2.6c1.6,0,2.9,0,3.3,0.1
			c0.8,0.2,1.2,0.6,1.3,1.2C43,160.9,43,162,43,164V167.9z"/>
		<path class="st5" d="M257.7,159.7c-0.5-2.1-1.8-3.4-4.6-3.9c-0.7-0.1-1.5-0.2-5.1-0.2h-1.8c-2.5,0-3.7,0.1-4.6,0.2
			c-3,0.4-4.5,1.6-5,3.8c-0.1,0.6-0.2,1.4-0.2,3.9v3.8c0,2.5,0.1,3.8,0.3,4.4c0.6,1.7,1.8,3,3.9,3.6c0.9,0.3,2.3,0.4,5.8,0.4h1.8
			c3.3,0,4.4-0.1,5.2-0.3c2.2-0.6,3.7-1.9,4.2-3.9c0.1-0.5,0.2-1.6,0.2-3.6V164C257.9,161.3,257.8,160.2,257.7,159.7 M253.1,167.9
			c0,1.8-0.1,2.5-0.2,2.8c-0.2,0.5-0.5,0.8-1,1c-0.4,0.2-1.1,0.2-3.4,0.2h-2.4c-2.4,0-3.5-0.1-3.8-0.3c-0.4-0.2-0.7-0.5-0.9-1
			c-0.1-0.3-0.2-1.4-0.2-3.6v-3.2c0-2.1,0-3.1,0.1-3.3c0.2-0.5,0.6-0.8,1.2-1c0.4-0.1,1.2-0.2,3.2-0.2h2.6c1.6,0,2.9,0,3.3,0.1
			c0.8,0.2,1.1,0.6,1.3,1.2c0.1,0.3,0.1,1.4,0.1,3.4V167.9z"/>
		<path id="XMLID_6_" class="st5" d="M119.6,175.3c-2.7-0.6-5.1-2-5.7-4.8c-0.1-0.4-0.1-1.2-0.1-4.3v-7.4c0-3.6,0-4.6,0.2-5.2
			c0.4-1.7,1.7-3.9,5.5-4.6c0.8-0.2,1.8-0.2,6.9-0.2c0,0,9.1,0,9.3,0c0,0.4,0,3.7,0,4.1c-0.4,0-9.9,0-9.9,0c-3.6,0-4.4,0.1-4.8,0.2
			c-0.7,0.2-1.1,0.6-1.4,1.2c-0.1,0.3-0.2,0.6-0.2,3v2.8c0,0,14.6,0,15,0c0,0.3,0,3.6,0,4c-0.4,0-15,0-15,0v2.9c0,2.7,0.1,3,0.2,3.3
			c0.2,0.6,0.7,0.9,1.4,1.1c0.5,0.1,1.1,0.2,4.8,0.2c0,0,9.7,0,10.1,0c0,0.4,0,3.7,0,4c-0.4,0-9.1,0-9.1,0
			C121.4,175.6,120.5,175.5,119.6,175.3z"/>
		<path id="XMLID_5_" class="st5" d="M52.3,163.7c0-2.5,0.1-3.5,0.1-3.9c0.5-2,2-3.4,4.3-3.9c0.8-0.2,1.8-0.3,5-0.3h2.4
			c3,0,4.2,0.1,5,0.3c2.6,0.6,3.7,2.2,4.1,3.5c0.2,0.7,0.2,1.3,0.2,3.7c0,0,0,12.1,0,12.5c-0.4,0-4.5,0-4.9,0c0-0.4,0-12.6,0-12.6
			c0-1.5,0-2.2-0.1-2.4c-0.1-0.5-0.4-0.8-0.8-1c-0.3-0.1-1.3-0.2-3.9-0.2H62c-2.6,0-3.6,0.1-3.9,0.2c-0.4,0.2-0.6,0.4-0.7,0.8
			c-0.1,0.2-0.1,0.7-0.1,2.6c0,0,0,12.2,0,12.6c-0.4,0-4.5,0-4.9,0C52.3,175.2,52.3,163.7,52.3,163.7z"/>
		<path id="XMLID_4_" class="st5" d="M157.8,155.6c0,0.4,0,19.6,0,20c0.4,0,4.6,0,4.9,0c0-0.4,0-19.6,0-20
			C162.6,155.6,158.2,155.6,157.8,155.6z"/>
		<path id="XMLID_3_" class="st5" d="M157.8,148.8c0,0.4,0,3.7,0,4.1c0.4,0,4.6,0,4.9,0c0-0.4,0-3.7,0-4.1
			C162.6,148.8,158.2,148.8,157.8,148.8z"/>
		<path id="XMLID_2_" class="st5" d="M94.3,156.3c0,2.6,0,11.1,0,11.1c0,2,0,2.7-0.1,3c-0.2,0.5-0.6,0.9-1.3,1.1
			c-0.3,0.1-0.8,0.2-2.8,0.2h-2.9c-2.3,0-2.8-0.1-3.2-0.3c-0.3-0.2-0.6-0.4-0.8-0.7c-0.1-0.3-0.2-0.7-0.2-2.8c0,0,0-8.9,0-11.6h-4.9
			c0,2.5,0,10.8,0,10.8c0,3.6,0,3.9,0.1,4.3c0.4,2.1,1.9,3.2,4,3.7l0,0c1.2,0.3,1.7,0.3,5.1,0.3c0,0,1.7,0,2.3,0
			c4.3,0,4.8-1.2,4.8-1.3v2.3c0,1.3,0,1.7-0.1,2c-0.1,0.5-0.5,0.9-1.2,1.1c-0.4,0.1-1.1,0.2-4.2,0.2c-1.8,0-6.1,0-8.5,0v3.7h8.8
			c4.5,0,5.3-0.1,6-0.3c2.4-0.6,3.5-2.1,3.9-3.8c0.1-0.5,0.2-1.3,0.2-4.2v-18.8H94.3z"/>
		<path id="XMLID_1_" class="st5" d="M267.2,175.3c0-1.2,0-12.3,0-12.3c0-1.9,0-2.3,0.1-2.6c0.1-0.4,0.4-0.6,0.7-0.8
			c0.3-0.1,1.4-0.2,3.9-0.2h1.8c2.6,0,3.6,0.1,3.9,0.2c0.4,0.2,0.7,0.5,0.8,1c0.1,0.2,0.1,0.9,0.1,2.4c0,0,0,11.1,0,12.3h4.9
			c0-1.2,0-12.2,0-12.2c0-2.4,0-3-0.3-3.7c-0.4-1.3-1.5-2.9-4.1-3.5c-0.8-0.2-2-0.3-5-0.3h-2.4c-3.2,0-4.2,0.1-5,0.3
			c-2.4,0.5-3.9,1.9-4.3,3.9c-0.1,0.4-0.2,1.4-0.2,3.9c0,0,0,10.4,0,11.6H267.2z"/>
	</g>
</g>
</svg>
