<?xml version="1.0" encoding="utf-8"?>
<!-- Generator: Adobe Illustrator 19.0.0, SVG Export Plug-In . SVG Version: 6.00 Build 0)  -->
<svg version="1.1" id="Lager_1" xmlns="http://www.w3.org/2000/svg" xmlns:xlink="http://www.w3.org/1999/xlink" x="0px" y="0px"
	 viewBox="0 0 283.5 283.5" style="enable-background:new 0 0 283.5 283.5;" xml:space="preserve">
<style type="text/css">
	.st0{fill:#D13239;}
	.st1{fill:#FFFFFF;}
</style>
<g>
	<path id="XMLID_3_" class="st0" d="M141.7,283.5c78.3,0,141.7-63.5,141.7-141.7C283.5,63.5,220,0,141.7,0S0,63.5,0,141.7
		C0,220,63.5,283.5,141.7,283.5"/>
	<path class="st1" d="M146.4,188.5h-36.9l36.9-54.5V188.5 M204.5,188.4h-19.3V24.7c0-1.3-0.8-2.4-2.1-2.8c-1.2-0.4-2.6,0.1-3.3,1.2
		L46.9,219.9c-0.6,0.9-0.7,2.1-0.2,3c0.5,0.9,1.5,1.5,2.6,1.5h98.2v22.2c0,1.6,1.3,2.9,2.9,2.9h31.9c1.6,0,2.9-1.3,2.9-2.9v-22.2
		h19.3c1.6,0,2.9-1.3,2.9-2.9v-30.2C207.5,189.7,206.2,188.4,204.5,188.4z"/>
</g>
</svg>
