<?xml version="1.0" encoding="utf-8"?>
<!-- Generator: Adobe Illustrator 19.0.0, SVG Export Plug-In . SVG Version: 6.00 Build 0)  -->
<svg version="1.1" id="Lager_1" xmlns="http://www.w3.org/2000/svg" xmlns:xlink="http://www.w3.org/1999/xlink" x="0px" y="0px"
	 viewBox="147 393 283.5 56.6" style="enable-background:new 147 393 283.5 56.6;" xml:space="preserve">
<style type="text/css">
	.st0{fill:none;}
</style>
<g>
	<title>background</title>
	<rect id="canvas_background" x="147" y="393" class="st0" width="283.5" height="56.6"/>
</g>
<g>
	<title>Layer 1</title>
	<g id="svg_1">
		<path id="svg_2" d="M174.7,413.8L170,449H157l-9.5-55.5h12l5,40.5h0.5l4.5-40.5h11.3l4.2,40.5h0.5l4.9-40.5h11.7l-9.7,55.5h-13.1
			l-4.1-35.3H174.7L174.7,413.8z"/>
		<path id="svg_3" d="M236.2,393.5v9.6h-15.6v12.7h13.7v9.6h-13.7v14h16.3v9.6h-28v-55.5C208.9,393.5,236.2,393.5,236.2,393.5z"/>
		<path id="svg_4" d="M272.7,393.5v9.6h-15.6v12.7h13.7v9.6h-13.7v14h16.3v9.6h-28v-55.5H272.7L272.7,393.5z"/>
		<path id="svg_5" d="M293.1,433.9V449h-11.3v-55.5h11.3v23.3h0.6l9.3-23.3h12.3l-10.6,23l10.8,32.5H303l-6.1-21.1
			C296.9,427.9,293.1,433.9,293.1,433.9z"/>
		<path id="svg_6" d="M322.2,449v-55.5H341c9.2,0,13.4,4.4,13.4,14.3v27.5c0,10.1-7.2,13.7-13.4,13.7L322.2,449
			C322.2,449.1,322.2,449,322.2,449z M333.9,440.7h2.8c4.9,0,5.9-2.8,5.9-5.3v-28.3c0-2.4-1-5.3-5.9-5.3h-2.8V440.7z"/>
		<path id="svg_7" d="M385.4,449l-1.5-10.4h-11l-1.6,10.4h-11.5l10-55.5h17.6l10,55.5H385.4L385.4,449z M374,429.9h8.7l-3.7-27.2h-1
			L374,429.9z"/>
		<path id="svg_8" d="M397.4,393.5h12.1l3.8,19.3h0.8l4-19.3h11.9l-10.4,32.6V449h-11.7v-22L397.4,393.5L397.4,393.5z"/>
	</g>
</g>
</svg>
